<?xml version="1.0" encoding="utf-8"?>
<!-- Generator: Adobe Illustrator 16.0.0, SVG Export Plug-In . SVG Version: 6.00 Build 0)  -->
<!DOCTYPE svg PUBLIC "-//W3C//DTD SVG 1.1//EN" "http://www.w3.org/Graphics/SVG/1.1/DTD/svg11.dtd">
<svg version="1.1" id="Слой_1" xmlns="http://www.w3.org/2000/svg" xmlns:xlink="http://www.w3.org/1999/xlink" x="0px" y="0px"
	 width="200px" height="200px" viewBox="0 0 200 200" enable-background="new 0 0 200 200" xml:space="preserve">
<g>
	<path fill="#FFFFFF" d="M45.466,116.173l0.653-22.524l0.164-5.625l0.019-0.708c0.007,0.199-0.01-0.344-0.016-0.484l-0.049-1.411
		c-0.013-0.971-0.062-1.894-0.229-2.552c-0.15-0.735-0.172-1.486-0.462-2.251c-0.238-0.758-0.417-1.553-0.782-2.237
		c-0.288-0.741-0.668-1.402-1.069-2.048c-0.374-0.591-0.971-1.293-1.203-1.542l-0.458-0.442L26.824,54.777l-0.954-1.225
		l-0.635-0.846l-0.395-0.666l-1.569-2.673c-0.468-1.054-0.829-2.353-1.188-3.525c-0.252-1.2-0.188-2.468-0.175-3.679
		c0.417-2.485,1.573-4.76,3.37-6.419c1.927-1.566,3.469-2.446,5.222-3.704L71.377,4L32.192,34.356
		c-1.538,1.233-3.484,2.604-4.685,3.726c-1.177,1.232-1.838,2.851-2.033,4.454c0.09,0.828,0.063,1.682,0.28,2.462
		c0.342,0.765,0.502,1.489,0.877,2.304l1.722,2.577l0.432,0.642l0.011,0.023c-0.07-0.102,0.176,0.245-0.152-0.218l0.034,0.038
		l0.061,0.072l0.126,0.147l0.258,0.29l1.017,1.167L46.46,70.695l-0.454-0.446c1.185,0.98,1.787,1.743,2.504,2.673
		c0.657,0.913,1.256,1.848,1.72,2.83c0.554,0.964,0.88,1.988,1.255,3c0.419,0.984,0.596,2.127,0.849,3.219
		c0.285,1.162,0.376,2.118,0.442,3.024l0.128,1.4l0.071,0.918l0.021,0.708l0.163,5.625l0.653,22.524H45.466z"/>
	<rect x="131.027" y="80.342" fill="#3B97C7" width="9.042" height="44.52"/>
	<path fill="#35ADEC" d="M177.984,42.437c0,23.432-19,42.434-42.436,42.434c-23.437,0-42.436-19.002-42.436-42.434
		C93.113,19.001,112.112,0,135.549,0C158.984,0,177.984,19.001,177.984,42.437z"/>
	<path fill="#FFFFFF" d="M135.549,11.135c-17.287,0-31.304,14.008-31.304,31.301c0,5.062,1.231,9.829,3.363,14.057l40.15-42.887
		C144.006,12.013,139.882,11.135,135.549,11.135z"/>
	<path fill="#EFEFF0" d="M147.759,13.607l-40.15,42.887c3.104,6.156,8.19,11.112,14.397,14.112l40.254-44.36
		C158.868,20.66,153.835,16.18,147.759,13.607z"/>
	<path fill="#FFFFFF" d="M122.006,70.605c4.102,1.981,8.679,3.132,13.543,3.132c17.288,0,31.303-14.011,31.303-31.301
		c0-5.943-1.715-11.46-4.592-16.191L122.006,70.605z"/>
	<path fill="#35ADEC" d="M59.005,190.089c0,5.281-4.281,9.568-9.561,9.568l0,0c-5.284,0-9.565-4.287-9.565-9.568V114.27
		c0-5.283,4.281-9.565,9.565-9.565l0,0c5.28,0,9.561,4.282,9.561,9.565V190.089z"/>
	<path fill="#35ADEC" d="M145.113,190.089c0,5.281-4.281,9.568-9.564,9.568l0,0c-5.283,0-9.566-4.287-9.566-9.568V114.27
		c0-5.283,4.283-9.565,9.566-9.565l0,0c5.283,0,9.564,4.282,9.564,9.565V190.089z"/>
</g>
</svg>
