<?xml version="1.0" encoding="utf-8"?>
<!-- Generator: Adobe Illustrator 16.0.0, SVG Export Plug-In . SVG Version: 6.00 Build 0)  -->
<!DOCTYPE svg PUBLIC "-//W3C//DTD SVG 1.1//EN" "http://www.w3.org/Graphics/SVG/1.1/DTD/svg11.dtd">
<svg version="1.1" id="Слой_1" xmlns="http://www.w3.org/2000/svg" xmlns:xlink="http://www.w3.org/1999/xlink" x="0px" y="0px"
	 width="200px" height="200px" viewBox="0 0 200 200" enable-background="new 0 0 200 200" xml:space="preserve">
<g id="Implants">
	<path fill="#F1F2F2" d="M140.417,0.009c-4.946,0.102-8.872,1.133-10.325,1.577c-0.396,0.117-0.669,0.21-0.669,0.21
		c-13.262,2.485-29.421,3.103-29.421,3.103S84.984,4.32,72.022,2.051c9.371,8.072,19.939,14.962,30.51,17.078
		C116.903,21.524,135.312,15.708,140.417,0.009z"/>
	<path fill="#FFFFFF" d="M165.841,80.975c1.23-3.234,2.127-4.999,2.127-4.999c18.649-41.448-2.071-63.408-2.071-63.408
		C158.56,2.018,148.212-0.15,140.417,0.009c-5.105,15.7-23.514,21.515-37.885,19.12c-10.571-2.116-21.14-9.006-30.51-17.078
		c-0.484-0.085-0.971-0.167-1.448-0.254c0,0-23.206-8.296-36.469,10.771c0,0-20.723,21.96-2.072,63.408
		c0,0,6.757,13.331,8.66,34.025h107.672C151.203,98.32,157.63,89.033,165.841,80.975z"/>
	<path fill="#F1F2F2" d="M148.364,110.001h10.948c0.039-0.428,0.061-0.877,0.104-1.299c1.295-12.554,4.34-22.252,6.424-27.728
		C157.63,89.033,151.203,98.32,148.364,110.001z"/>
	<path fill="#35ADEC" d="M155.326,130.516c0,5.494-5.289,9.947-11.813,9.947h-87.03c-6.523,0-11.812-4.453-11.812-9.947l0,0
		c0-5.492,5.289-9.946,11.812-9.946h87.03C150.037,120.569,155.326,125.023,155.326,130.516L155.326,130.516z"/>
	<path fill="#35ADEC" d="M142.272,160.043c0,5.494-5.288,9.947-11.81,9.947H69.536c-6.523,0-11.812-4.453-11.812-9.947l0,0
		c0-5.493,5.288-9.944,11.812-9.944h60.927C136.984,150.099,142.272,154.55,142.272,160.043L142.272,160.043z"/>
	<path fill="#35ADEC" d="M129.321,189.573c0,5.493-5.289,9.946-11.813,9.946H82.488c-6.523,0-11.811-4.453-11.811-9.946l0,0
		c0-5.493,5.288-9.946,11.811-9.946h35.021C124.032,179.627,129.321,184.08,129.321,189.573L129.321,189.573z"/>
</g>
</svg>
