<svg xmlns="http://www.w3.org/2000/svg" width="249.5" height="241.5" viewBox="0 0 249.5 241.5"><path d="M249.5 220.75q0 3.25-2.5 5.75L234.5 239q-2.5 2.5-5.75 2.5T223 239l-98.25-98.25L26.5 239q-2.5 2.5-5.75 2.5T15 239L2.5 226.5Q0 224 0 220.75T2.5 215L119 98.5q2.5-2.5 5.75-2.5t5.75 2.5L247 215q2.5 2.5 2.5 5.75zm0-96q0 3.25-2.5 5.75L234.5 143q-2.5 2.5-5.75 2.5T223 143l-98.25-98.25L26.5 143q-2.5 2.5-5.75 2.5T15 143L2.5 130.5Q0 128 0 124.75T2.5 119L119 2.5q2.5-2.5 5.75-2.5t5.75 2.5L247 119q2.5 2.5 2.5 5.75z"/></svg>