<?xml version="1.0" encoding="utf-8"?>
<!-- Generator: Adobe Illustrator 16.0.0, SVG Export Plug-In . SVG Version: 6.00 Build 0)  -->
<!DOCTYPE svg PUBLIC "-//W3C//DTD SVG 1.1//EN" "http://www.w3.org/Graphics/SVG/1.1/DTD/svg11.dtd">
<svg version="1.1" id="Слой_1" xmlns="http://www.w3.org/2000/svg" xmlns:xlink="http://www.w3.org/1999/xlink" x="0px" y="0px"
	 width="200px" height="200px" viewBox="0 0 200 200" enable-background="new 0 0 200 200" xml:space="preserve">
<g id="Bracket">
	<path fill="#F18159" d="M199.73,89.91c0-29.341-28.879-28.88-28.879-28.88H99.999h-70.85c0,0-28.88-0.461-28.88,28.88
		c0,0-0.046,14.495,7.316,30.213v-18.975c0-14.75,10.527-26.75,23.464-26.75c9.151,0,17.012,6.06,20.875,14.794
		c4.412-8.734,13.373-14.794,23.802-14.794c10.57,0,19.641,6.208,23.984,15.128c4.342-8.92,13.414-15.128,23.982-15.128
		c10.43,0,19.395,6.06,23.801,14.794c3.865-8.734,11.727-14.794,20.88-14.794c12.936,0,23.46,12,23.46,26.75v19.484h0.346
		C199.791,104.725,199.73,89.91,199.73,89.91z"/>
	<g>
		<path fill="#FFFFFF" d="M144.909,138.97v-37.821c0-11.718-9.498-21.214-21.216-21.214c-11.716,0-21.215,9.496-21.215,21.214
			v37.821H144.909z"/>
		<path fill="#FFFFFF" d="M186.301,138.97v-37.821c0-11.718-8.026-21.214-17.927-21.214c-9.905,0-17.932,9.496-17.932,21.214v37.821
			H186.301z"/>
		<path fill="#FFFFFF" d="M48.977,138.97v-37.821c0-11.718-8.023-21.214-17.927-21.214c-9.903,0-17.928,9.496-17.928,21.214v37.821
			H48.977z"/>
		<path fill="#FFFFFF" d="M96.944,138.97v-37.821c0-11.718-9.499-21.214-21.217-21.214c-11.716,0-21.214,9.496-21.214,21.214v37.821
			H96.944z"/>
	</g>
	<path fill="#35ADEC" d="M169.175,102.763c-2.695,0-4.989,1.615-6.046,3.917h-33.386c-1.056-2.302-3.354-3.917-6.053-3.917
		c-2.696,0-4.99,1.615-6.048,3.917H81.777c-1.056-2.302-3.354-3.917-6.052-3.917c-2.698,0-4.99,1.615-6.049,3.917H37.102
		c-1.058-2.302-3.352-3.917-6.055-3.917c-3.691,0-6.683,2.994-6.683,6.685c0,3.697,2.992,6.692,6.683,6.692
		c2.703,0,5-1.623,6.058-3.925h32.568c1.054,2.302,3.351,3.925,6.051,3.925c2.701,0,4.999-1.623,6.057-3.925h35.859
		c1.053,2.302,3.351,3.925,6.05,3.925c2.702,0,5-1.623,6.055-3.925h33.379c1.055,2.302,3.351,3.925,6.051,3.925
		c3.699,0,6.691-2.995,6.691-6.692C175.866,105.757,172.874,102.763,169.175,102.763z"/>
</g>
</svg>
