<?xml version="1.0" encoding="utf-8"?>
<!-- Generator: Adobe Illustrator 16.0.0, SVG Export Plug-In . SVG Version: 6.00 Build 0)  -->
<!DOCTYPE svg PUBLIC "-//W3C//DTD SVG 1.1//EN" "http://www.w3.org/Graphics/SVG/1.1/DTD/svg11.dtd">
<svg version="1.1" id="Слой_1" xmlns="http://www.w3.org/2000/svg" xmlns:xlink="http://www.w3.org/1999/xlink" x="0px" y="0px"
	 width="200px" height="200px" viewBox="0 0 200 200" enable-background="new 0 0 200 200" xml:space="preserve">
<g id="Denture">
	<path fill="#FFFFFF" d="M51.286,109.133c0.039,3.13-0.069,6.404-0.376,9.813c0,0-5.834,31.584,10.986,78.267
		c0,0,6.181,5.151,9.957,0.344c0,0,2.743-77.922,28.146-81.014V72.6C99.998,72.6,55.916,73.23,51.286,109.133z"/>
	<path fill="#F1F2F2" d="M99.999,116.543c25.404,3.09,28.148,81.014,28.148,81.014c3.777,4.808,9.959-0.344,9.959-0.344
		c16.818-46.683,10.981-78.267,10.981-78.267c-0.255-2.854-0.351-5.593-0.358-8.255C141.108,70.955,99.998,72.6,99.998,72.6
		L99.999,116.543L99.999,116.543z"/>
	<path fill="#3FA4D7" d="M157.567,11.383C147.091-3.682,129.562,0.785,126.29,1.787c-0.348,0.106-0.584,0.188-0.584,0.188
		c-11.588,2.171-25.705,2.711-25.705,2.711h-0.004v61.363c0,0,43.359-1.73,51.397,40.179c-0.012-3.826,0.164-7.475,0.515-10.861
		c1.8-17.437,7.47-28.589,7.47-28.589C175.671,30.566,157.567,11.383,157.567,11.383z"/>
	<path fill="#35ADEC" d="M74.292,1.974c0,0-20.274-7.248-31.86,9.409c0,0-18.104,19.183-1.811,55.394c0,0,7.718,15.174,8,37.804
		c4.879-37.866,51.375-38.533,51.375-38.533V4.686C99.954,4.686,85.861,4.143,74.292,1.974z"/>
</g>
</svg>
