<?xml version="1.0" encoding="utf-8"?>
<!-- Generator: Adobe Illustrator 16.0.0, SVG Export Plug-In . SVG Version: 6.00 Build 0)  -->
<!DOCTYPE svg PUBLIC "-//W3C//DTD SVG 1.1//EN" "http://www.w3.org/Graphics/SVG/1.1/DTD/svg11.dtd">
<svg version="1.1" id="Слой_1" xmlns="http://www.w3.org/2000/svg" xmlns:xlink="http://www.w3.org/1999/xlink" x="0px" y="0px"
	 width="200px" height="200px" viewBox="0 0 200 200" enable-background="new 0 0 200 200" xml:space="preserve">
<g>
	<g>
		<path fill="#FFFFFF" d="M123.068,51.452c0-1.996-3.537-5.154-8.512-6.727c-0.271,0.078-0.455,0.141-0.455,0.141
			c-9.029,1.691-20.031,2.113-20.031,2.113s-11.005-0.422-20.037-2.113c0,0-15.801-5.646-24.83,7.335
			c0,0-14.109,14.954-1.411,43.172c0,0,7.902,15.523,5.926,37.53c0,0-4.796,25.959,9.031,64.333c0,0,5.079,4.231,8.183,0.279
			c0,0,2.255-64.053,23.138-66.589c20.881,2.536,23.135,66.589,23.135,66.589c3.107,3.952,8.186-0.279,8.186-0.279
			c13.824-38.374,9.025-64.333,9.025-64.333c-0.496-5.546-0.365-10.674,0.105-15.249C126.291,99.568,135.334,71.07,123.068,51.452z"
			/>
		<path fill="#F1F2F1" d="M123.068,51.452c12.266,19.618,3.223,48.116,11.453,66.202c1.402-13.593,5.822-22.281,5.822-22.281
			c12.697-28.218-1.41-43.172-1.41-43.172c-8.168-11.737-21.828-8.257-24.377-7.476C119.531,46.298,123.068,49.457,123.068,51.452z"
			/>
	</g>
	<polygon fill="#44A5DB" points="150.166,28.222 141.303,19.324 128.893,21.272 137.795,12.412 135.844,0 144.709,8.9 
		157.121,6.952 148.215,15.821 	"/>
	<polygon fill="#44A5DB" points="192.014,80.646 183.15,71.749 170.74,73.697 179.645,64.833 177.693,52.421 186.557,61.324 
		198.967,59.376 190.063,68.243 	"/>
	<polygon fill="#44A5DB" points="90.31,31.689 81.449,22.789 69.039,24.74 77.941,15.873 75.994,3.466 84.856,12.364 97.268,10.416 
		88.362,19.283 	"/>
	<polygon fill="#44A5DB" points="22.307,45.804 13.444,36.901 1.033,38.852 9.939,29.987 7.99,17.578 16.851,26.478 29.262,24.53 
		20.357,33.396 	"/>
</g>
</svg>
